<svg height="512" width="512" xmlns="http://www.w3.org/2000/svg"><linearGradient id="a" gradientUnits="userSpaceOnUse" x1="256" x2="256" y1="512" y2="0"><stop offset="0" stop-color="#ffc2cc"/><stop offset="1" stop-color="#fff2f4"/></linearGradient><linearGradient id="b" gradientUnits="userSpaceOnUse" x1="256" x2="256" y1="407" y2="105"><stop offset="0" stop-color="#ffa68d"/><stop offset="1" stop-color="#fd3a84"/></linearGradient><circle cx="256" cy="256" fill="url(#a)" r="256"/><path d="M176.2 145.734l-48.005 48.09H176.2zm150.733-5.205h-133v62.176c0 4.91-3.966 8.882-8.867 8.882H123v186.529c0 4.91 3.966 8.882 8.867 8.882h195.067c4.901 0 8.867-3.973 8.867-8.882V149.412c-.001-4.91-3.967-8.883-8.868-8.883zm-53.2 195.412h-88.667c-4.901 0-8.867-3.973-8.867-8.882 0-4.91 3.966-8.882 8.867-8.882h88.667c4.901 0 8.867 3.973 8.867 8.882s-3.966 8.882-8.867 8.882zm0-35.529h-88.667c-4.901 0-8.867-3.973-8.867-8.882 0-4.91 3.966-8.882 8.867-8.882h88.667c4.901 0 8.867 3.973 8.867 8.882s-3.966 8.882-8.867 8.882zm0-35.53h-88.667c-4.901 0-8.867-3.973-8.867-8.882 0-4.91 3.966-8.882 8.867-8.882h88.667c4.901 0 8.867 3.973 8.867 8.882 0 4.91-3.966 8.882-8.867 8.882zM380.133 105H202.8c-4.901 0-8.867 3.973-8.867 8.882v8.882h133c14.668 0 26.6 11.953 26.6 26.647v204.294h26.6c4.901 0 8.867-3.973 8.867-8.882V113.882c0-4.909-3.966-8.882-8.867-8.882z" fill="url(#b)"/></svg>