<svg height="512" width="512" xmlns="http://www.w3.org/2000/svg"><linearGradient id="a" gradientUnits="userSpaceOnUse" x1="0" x2="512" y1="256" y2="256"><stop offset="0" stop-color="#80d8ff"/><stop offset="1" stop-color="#ea80fc"/></linearGradient><path d="M485.18 21.635l-.034.011L13.57 181.128c-16.783 5.675-18.407 28.853-2.583 36.815l145.962 73.447v150.087c0 17.041 19.885 26.126 32.799 15.368l53.712-44.75 48.195 70.674c8.922 13.087 28.737 11.069 34.918-3.425L510.341 48.307c6.599-15.465-7.45-32.383-25.161-26.672zM174.806 255.594L71.682 203.703 381.745 98.844zm22.141 143.189v-54.896l23.872 35.007zm107.164 31.257l-99.919-146.524 239.842-181.673z" fill="url(#a)"/></svg>